<?xml version="1.0" encoding="utf-8"?>
<!-- Generator: Adobe Illustrator 25.0.0, SVG Export Plug-In . SVG Version: 6.00 Build 0)  -->
<svg version="1.1" id="Layer_1" xmlns="http://www.w3.org/2000/svg" xmlns:xlink="http://www.w3.org/1999/xlink" x="0px" y="0px"
	 viewBox="0 0 753.6 184.6" style="enable-background:new 0 0 753.6 184.6;" xml:space="preserve">
<style type="text/css">
	.st0{fill:#003D45;}
	.st1{fill:#F3773D;}
	.st2{fill:#01757F;}
</style>
<g>
	<g>
		<g>
			<g>
				<path class="st0" d="M130,38.3c-1.4-3.5-4.5-5.5-8.5-5.6c-2.2,0-4.6,0-7.2,0.3c-1.5,0.1-2.9,0.3-4.4,0.5
					c0.2-0.3,0.4-0.5,0.6-0.8c1.4-1.7,2.5-3.1,3.7-4.3c4.3-4.6,3.3-8.8,2.4-11c-1-2.1-3.6-5.7-9.9-5.4c-5.6,0.3-10.8,1.3-15.7,3.2
					c-2.5,1-4.9,2.1-7.1,3.4c-0.1,0.1-0.2,0.1-0.3,0.2c-0.7-1.7-1.5-3.4-2.4-5.1c-0.2-0.3-0.3-0.6-0.5-0.9c-0.1-0.1-0.1-0.3-0.2-0.4
					C78.9,9.2,76.3,5.1,72,2.2c-4.2-2.9-8-2.4-10.4-1.4c-3.9,1.5-7.2,4.5-9.6,8.8c-0.4,0.7-0.8,1.4-1.1,2.1c-0.2,0.3-0.3,0.7-0.5,1
					c-1.1,2-2.1,4.1-3.2,6.2c-2.2-1.3-4.5-2.4-6.9-3.4c-5.3-2.1-10.9-3.3-16.7-3.5c-4.3-0.1-7.7,1.9-9.4,5.6
					c-0.8,1.9-1.7,5.8,1.8,10.1c1.5,1.8,2.9,3.6,4.3,5.3l0.1,0.1c0.1,0.1,0.1,0.2,0.2,0.3c-1.1-0.2-2.1-0.3-3.2-0.4
					c-3.1-0.3-5.7-0.5-8.2-0.5c-3.9,0-7.1,2.1-8.6,5.7c-0.8,1.9-0.9,4-0.4,6c0.3,1,0.7,1.9,1.3,2.7c0.5,0.7,1,1.3,1.6,1.9
					c1.2,1,2.6,2.3,3.9,3.5c0.1,0.1,0.1,0.1,0.2,0.2c0.7,0.7,1.4,1.4,2,2.1l0,0c0.1,0.1,0.1,0.2,0.2,0.2l0,0c0.7,0.7,1.3,1.4,2,2.1
					c5.2,5.8,10.8,14.6,11.6,16l0.2,0.3c0.4,0.7,0.7,1.5,1.1,2.2c-8.6,7.6-13.7,17-15.2,27.8c-0.3,2.2-0.5,4.2-0.5,6.2
					c-0.1,4.9-0.1,9.8-0.1,14.6c0,4.6,0,9.3-0.1,14c0,0.3,0,0.6,0,0.9l0,0.1c0,6.7,1.4,12.8,4.2,18.4c8.3,16.9,22.5,26.3,41.2,27.2
					c3.4,0.2,6.8,0.2,10.1,0.2c3.1,0,6.1,0,9.1-0.1l2.3,0c7-0.1,13-1.4,18.1-4.1c4.9-2.5,8.6-4.9,11.8-7.6c3.2-2.8,6.3-6.3,8.9-10.3
					c4.5-6.8,6.8-14,6.9-21.5c0-0.3,0-0.7,0-1c0-0.3,0-0.5,0-0.8c0.2-10.7,0.2-21.4,0.1-31.7c0-1.2-0.1-2.5-0.3-4.1
					c-0.3-2.1-0.7-4.3-1.4-6.4c-2.3-8-6.5-14.9-12.6-20.6c-0.1-0.1-0.1-0.1-0.2-0.2c-0.3-0.3-0.6-0.5-0.9-0.8
					c3-5.6,6.4-10.6,10.4-15c2.6-2.9,5.3-5.6,8.3-8.5l3.1-3.1c0.3-0.3,0.5-0.5,0.7-0.8C130.8,45.2,131.4,41.7,130,38.3z M124.2,44.6
					c-0.1,0.1-0.1,0.2-0.2,0.3c-0.3,0.3-0.5,0.5-0.8,0.8c-0.8,0.8-1.5,1.5-2.3,2.3c-2.9,2.9-5.8,5.7-8.5,8.8
					c-5,5.6-9.1,11.9-12.4,18.7c-0.5,1-0.3,1.6,0.5,2.3c0.6,0.5,1.2,1,1.8,1.5c0.3,0.3,0.7,0.6,1,0.9c0.1,0,0.1,0.1,0.2,0.1
					c5.3,5,9,11,11.1,18.2c0.5,1.8,0.9,3.7,1.2,5.6c0.2,1.1,0.3,2.3,0.3,3.4c0.1,10.5,0.1,21-0.1,31.5c0,0.6,0,1.2,0,1.8
					c-0.1,6.8-2.3,13.1-6,18.6c-2.2,3.4-4.9,6.6-7.9,9.2c-3.2,2.7-6.9,5-10.7,6.9c-4.9,2.5-10.2,3.4-15.7,3.5
					c-7.1,0.1-14.1,0.3-21.2-0.1c-16.9-0.8-29.1-9-36.5-24.2c-2.5-5-3.6-10.4-3.6-16.1c0-0.3,0-0.6,0-0.9c0.1-9.5,0-19,0.1-28.5
					c0-1.9,0.2-3.7,0.5-5.5c1.4-9.7,6-17.9,13.5-24.6c0.3-0.3,0.6-0.6,1-0.9c0.2-0.1,0.3-0.3,0.4-0.4c1.3-1.1,1.6-1.9,0.7-3.3
					c-0.3-0.5-0.6-1.1-0.9-1.6c-0.5-1-1-2-1.5-2.9c0,0-6.4-10.3-12.4-17.1c-0.7-0.7-1.4-1.4-2.1-2.2c0,0,0,0-0.1-0.1
					c0,0-0.1-0.1-0.1-0.1c-0.7-0.7-1.4-1.5-2.1-2.2c-0.1-0.1-0.1-0.1-0.2-0.2c-1.3-1.3-2.8-2.6-4.2-3.8c-0.3-0.3-0.5-0.5-0.7-0.8
					c-0.2-0.3-0.4-0.7-0.5-1.1c-0.2-0.8-0.2-1.6,0.2-2.4c0.6-1.4,1.8-2.3,3.6-2.3c2.6,0,5.1,0.2,7.6,0.4c4.6,0.5,9.2,1.4,13.7,2.7
					c0.4,0.1,0.9,0.2,1.9,0.3c-1.9-3.1-3.5-5.9-5.3-8.4c-0.8-1.2-1.7-2.3-2.6-3.4c-1.5-1.8-2.9-3.7-4.4-5.5c-1.1-1.3-1.7-2.8-1-4.4
					c0.8-1.7,2.3-2.4,4.2-2.3c5.2,0.2,10.2,1.2,14.8,3.1c3.7,1.5,7.2,3.4,10.5,6c0.3,0.2,0.6,0.4,0.5,0.3c2-3.9,3.9-7.8,5.9-11.6
					c0.5-1,1-2,1.5-2.9c1.6-2.7,3.7-5.2,6.9-6.4c2-0.8,3.7-0.3,5.4,0.8c3.1,2.1,5.1,5.1,6.9,8.3c0.2,0.4,0.5,0.8,0.7,1.2
					c1.8,3.5,3.2,7.1,4.8,10.8c1.8-1.2,3.6-2.5,5.5-3.6c2-1.2,4.1-2.2,6.2-3c4.5-1.7,9.1-2.6,14-2.8c2-0.1,3.8,0.3,4.7,2.2
					c0.9,1.9,0,3.5-1.4,5c-1.4,1.5-2.7,3.1-4,4.7c-2.8,3.6-5.3,7.4-7.5,11.4c-0.1,0.1-0.1,0.4-0.1,0.7c1.8-0.4,3.6-0.8,5.4-1.2
					c3.6-0.9,7.2-1.5,10.8-1.8c2.2-0.2,4.4-0.3,6.7-0.3c1.7,0,2.9,0.7,3.5,2.2C125.6,41.9,125.4,43.3,124.2,44.6z"/>
				<g>
					<path class="st1" d="M86.1,104.1c-5.2,5.1-10.3,10.1-15.2,14.9c5.9,6,11.9,12,18,18.2c0.4-0.3,0.9-0.6,1.2-0.9
						c5.4-5.4,10.9-10.8,16.2-16.2c-3.2-3.4-10.8-11.6-14.9-16c-1.4-1.5-2.4-2.6-2.6-2.8C88,102.2,87.1,103.1,86.1,104.1z M92.8,120
						c0,2.1-1.5,3.7-3.6,3.8c-1.9,0.1-3.8-1.7-3.8-3.7c0-2,1.6-3.7,3.7-3.7C91.3,116.4,92.8,117.8,92.8,120z"/>
					<path class="st2" d="M34.5,66.4c0,0.1,0.1,0.1,0.1,0.2c0.3,0.6,0.6,1.1,0.9,1.6l0,0c0.6,1.1,1.2,2.3,1.8,3.3
						c0.2,0.4,1.1,0.8,1.5,0.7c6.2-2.5,12.6-3.8,19.4-3.6c-9.6-12.9-22.5-19.8-38.3-22.1c0.4,0.6,0.9,1.1,1.3,1.7
						c0.3,0.4,0.4,0.8,0.6,1.1c0,0,0,0,0,0S30.7,60,34.5,66.4C34.4,66.4,34.5,66.4,34.5,66.4z"/>
					<path class="st1" d="M28.7,103.9c2.2-2.2,4.5-4.5,6.7-6.6c1.3-1.3,1.3-2-0.1-3.1c-1-0.8-1.8-1.8-2.7-2.7c-1-1-2-1.9-3.1-3
						c-3.8,4.7-6.3,9.8-7.3,15.5c-0.4,2.2-0.6,4.4-0.6,6.7c0.6-0.5,1-0.7,1.3-1C24.9,107.7,26.8,105.8,28.7,103.9z"/>
					<path class="st1" d="M34.8,141.1c-0.8-0.8-1.6-1.6-2.3-2.4c-3.2-3.2-6.4-6.5-9.6-9.7c-0.3-0.3-0.6-0.4-1.1-0.7
						c0,3.5-0.2,7,0,10.4c0.2,4.9,1.1,9.7,3.7,14.3c3.4-3.3,6.7-6.5,9.9-9.7C36.4,142.3,35.4,141.7,34.8,141.1z"/>
					<path class="st1" d="M47.5,154c-2-2-3.9-4-5.8-6.1c-4.1,4.1-7.9,7.9-11.9,11.9c5.4,6,12.1,9.7,20.1,11.2
						c3.2,0.6,5.7,0.3,7.6-2.6c0.3-0.4,0.6-0.8,1-1c1.1-0.8,0.9-1.5,0.1-2.3C54.9,161.5,51.2,157.7,47.5,154z M41.3,164
						c-2,0-3.8-1.8-3.8-3.7c0-1.9,1.9-3.7,3.8-3.7c2,0,3.7,1.7,3.7,3.8C45,162.5,43.4,164.1,41.3,164z"/>
					<path class="st2" d="M41.8,43.4c0.7,1.3,1.2,2.6,2.7,3.3c0.5,0.2,0.9,0.5,1.4,0.7c0.6,0.3,1.3,0.7,1.9,1.1
						c0.6,0.4,1.2,0.8,1.8,1.2c3.6,2.8,7.2,5.8,10.6,8.6c0-2.8-1-6-2.6-9.3c-0.2-0.3-0.3-0.7-0.5-1c-5.4-10.3-16.7-21.1-24.7-21.5
						c0.2,0.4,0.4,0.7,0.5,1C35.8,32.8,38.9,38.1,41.8,43.4z"/>
					<path class="st1" d="M43.3,89.3c2.8-2.7,5.6-5.5,8.4-8.3c0.2-0.2,0.4-0.4,0.6-0.6c0.1-0.1,0.2-0.2,0.4-0.4
						c0.9-0.9,1.8-1.8,2.9-2.9c0.3-0.3,0.6-0.6,0.9-0.9c-1.8,0-3.5,0.1-5.1,0.3c-3.4,0.4-6.7,1.3-9.7,2.8c-0.6,0.3-1.2,0.5-1.8,0.9
						c-1.6,0.9-3.2,1.9-4.8,3.1c2.4,2.3,4.4,4.3,6.6,6.3C41.8,89.9,42.9,89.7,43.3,89.3z"/>
					<path class="st1" d="M41.9,136.9c5.7-5.7,11.4-11.4,17.2-17.1c0.8-0.8,0.5-1.3-0.1-2c-1.7-1.7-3.5-3.4-5.2-5.2
						c-2.8-2.9-5.7-5.8-8.4-8.7c-0.9-1-1.9-1.9-2.8-2.9c-1,1-1.9,1.9-2.9,2.8c-5.3,5.3-10.5,10.4-15.3,15.2
						C30.2,125,36,130.9,41.9,136.9z M41.5,116.3c2.2,0,3.7,1.6,3.7,3.7c0,2-1.8,3.7-3.8,3.7c-1.9,0-3.8-1.9-3.8-3.8
						C37.6,118,39.4,116.3,41.5,116.3z"/>
					<path class="st1" d="M68,80.5c0-0.1-0.1-0.1-0.1-0.2c-0.5-0.6-1-1.2-1.4-1.9c-0.2-0.3-0.3-0.5-0.5-0.8
						c-0.2,0.2-0.4,0.4-0.7,0.6c-0.7,0.7-1.4,1.4-2.1,2.1c-0.3,0.3-0.6,0.6-1,1c-5,4.9-9.7,9.7-14.6,14.5c2.7,2.7,5.4,5.4,8.1,8.1
						c2.9,2.9,5.9,5.8,8.8,8.8c0.8,0.8,1.2,0.6,2-0.2c2.9-2.9,5.8-5.7,8.6-8.5c2.2-2.2,4.4-4.4,6.7-6.6c1.2-1.2,1.3-1.9,0-3.2
						c-4.3-4.2-8.5-8.5-12.7-12.8C68.6,81.2,68.3,80.8,68,80.5z M65.1,100.3c-2,0-3.7-1.9-3.6-3.9c0.1-2,1.9-3.9,3.7-3.8
						c1.8,0.1,3.9,2.2,3.9,4C69.1,98.6,67.2,100.4,65.1,100.3z"/>
					<path class="st2" d="M62.3,42.5c1.1,1.8,1.9,3.7,3,5.8c0,0.1,0.1,0.1,0.1,0.2c0-0.1,0.1-0.1,0.1-0.2c0.3-0.4,0.5-0.6,0.6-0.9
						c2.1-4.7,4.6-9.1,7.9-13.1c0.3-0.4,0.5-1.2,0.4-1.7c-1.3-6.6-3.9-12.7-8-18.1c-0.1-0.1-0.2-0.2-0.3-0.3
						c-0.6-0.6-1.1-0.7-1.8,0.1c-0.1,0.1-0.1,0.1-0.2,0.2c-3.9,4.8-6,10.5-7.6,16.3c-0.5,1.7-0.1,3,1,4.5
						C59.4,37.5,60.9,40,62.3,42.5z"/>
					<path class="st2" d="M73.4,49.3c-1.4,3.2-2.4,6.4-2.8,9.4c0.2-0.1,0.3-0.2,0.5-0.3c3.4-3.5,7.2-6.5,11.2-9.2
						c0.6-0.4,1.1-0.7,1.7-1c1-0.6,1.9-1.2,2.9-1.7c0.6-0.3,1.2-1.1,1.5-1.7c1.8-3.3,3.4-6.8,5.2-10.1c1.5-2.6,3.2-5.1,5-8
						c-10.8,2.5-20.1,11.9-24.8,21.7C73.7,48.7,73.6,49,73.4,49.3z"/>
					<path class="st2" d="M103.4,47.9c-12.4,3.5-29.3,14.4-30.8,21c0.2,0,0.5,0.1,0.7,0.1c6.2-0.2,12.2,0.8,17.9,3.4
						c1.6,0.7,2.1-0.3,2.6-1.3c3.6-7.6,8.5-14.4,14-20.7c0.9-1,1.7-2,2.7-3.1c0.1-0.1,0.2-0.3,0.4-0.4
						C108.8,46.7,106.2,47.1,103.4,47.9z"/>
					<path class="st1" d="M95.6,97.7c0.6,0.6,1.2,1.2,1.8,1.8c0.5,0.5,2,2.3,3.9,4.6c2.2,2.7,5,6.2,7.4,9.4c0.1-3.2,0-6.3-0.5-9.4
						c-0.2-1.4-0.6-2.8-1.1-4.2c-1.4-4-3.2-7.7-6.1-11c-2.4,2.4-4.7,4.7-7.1,7.1C94.5,96.6,95,97.1,95.6,97.7z"/>
					<path class="st1" d="M98.6,139c-1.3,1.2-2.6,2.5-3.8,3.7c3.3,3.4,6.7,6.8,10.1,10.3c2.6-4.5,3.4-9.2,3.6-14
						c0.2-3.2,0-6.5,0-9.8C105.2,132.6,101.9,135.8,98.6,139z"/>
					<path class="st1" d="M94.4,82.6c-0.9-0.5-1.8-1.1-2.7-1.6c-0.5-0.3-1.1-0.6-1.6-0.9c0,0,0,0-0.1,0c-0.4-0.2-0.7-0.4-1.1-0.6
						c-4.3-2-8.9-3-13.8-3c0.2,0.5,0.2,0.7,0.3,0.8c0.7,0.7,1.4,1.4,2.1,2.1c0.4,0.4,0.7,0.7,1.1,1.1c0.3,0.3,0.6,0.6,1,1
						c2.7,2.8,5.4,5.5,8.2,8.3c0.3,0.3,1.4,0.2,1.8-0.1c1.8-1.6,3.4-3.3,5.1-5C95.5,83.7,95.3,83.1,94.4,82.6z"/>
					<path class="st1" d="M77.2,149c2.1-2.1,4.2-4.2,6.3-6.2c-1.3-1.3-2.6-2.6-3.9-3.9c-4.9-4.8-9.7-9.6-14.7-14.6
						c-4.7,4.8-9.6,9.6-14.4,14.5c-1,1-1.9,1.9-2.9,2.9c-0.9,0.9-0.2,1.4,0.3,2c5.4,5.4,10.8,10.8,16.1,16.3c0.8,0.8,1.3,1,2.2,0
						C69.8,156.3,73.6,152.7,77.2,149z M65,146.9c-2,0-3.7-1.8-3.7-3.8c0-2.1,1.6-3.6,3.8-3.6c2.1,0,3.7,1.6,3.7,3.7
						C68.8,145.3,67.1,146.9,65,146.9z"/>
					<path class="st1" d="M90.4,149.5c-1.1-1.1-1.7-1.3-2.9-0.1c-6.1,6.2-12.3,12.3-18.5,18.4c-1.1,1.1-2.2,2.2-3.3,3.3
						c0.1,0.2,0.2,0.3,0.3,0.5c3.3,0,6.6,0.2,9.9,0c9.2-0.6,17.2-3.9,23.6-10.7c0.9-0.9,1-1.4,0-2.3
						C96.4,155.6,93.3,152.6,90.4,149.5z M88.9,164.2c-2,0-3.7-1.7-3.7-3.6c0-2,1.7-3.8,3.7-3.8c2.1,0,3.7,1.7,3.7,3.8
						C92.6,162.7,91.1,164.2,88.9,164.2z"/>
				</g>
			</g>
		</g>
	</g>
	<g>
		<g>
			<g>
				<path class="st0" d="M190.7,93.5h-27.9v-84h28.4c26.1,0,34.1,16,34.1,40.2C225.4,74.3,217.5,93.5,190.7,93.5z M189.9,29.9h-4.1
					V74h4.5c10.3,0,11.4-8,11.4-22C201.7,37.4,200.2,29.9,189.9,29.9z"/>
				<path class="st0" d="M297.6,50.2c0,30.3-9.5,44.6-33.4,44.6c-23.7,0-32.9-14.6-32.9-43.7c0-30.2,9.5-43,33.3-43
					C288.5,8.2,297.6,21.3,297.6,50.2z M254.8,50.6v3.2c0,17.4,1.8,21.4,10.1,21.4c7.8,0,9.3-4.1,9.3-20.2v-4.3
					c0-16-1.5-21.2-10.1-21.2C256.1,29.5,254.8,35.1,254.8,50.6z"/>
				<path class="st0" d="M382.6,93.5h-27.9l-7.3-37.2h-1.1l-6.1,37.2h-28l-8.8-84h22.2l3.5,44.5h1.4l5.7-44.5h22.6l6.2,44.5h1.4
					l2.4-44.5h21.4L382.6,93.5z"/>
				<path class="st0" d="M437.9,93.5l-17.4-39.1h-1.1v39.1h-20.6v-84h22.9l16.6,40.3h1.1V9.5h20.7v84H437.9z"/>
				<path class="st0" d="M505.2,29.9v63.6H482V29.9h-16.6l1.4-20.4h55.4l-1.4,20.4H505.2z"/>
				<path class="st0" d="M591,50.2c0,30.3-9.5,44.6-33.4,44.6c-23.7,0-32.9-14.6-32.9-43.7c0-30.2,9.5-43,33.3-43
					C582,8.2,591,21.3,591,50.2z M548.3,50.6v3.2c0,17.4,1.8,21.4,10.1,21.4c7.8,0,9.3-4.1,9.3-20.2v-4.3c0-16-1.5-21.2-10.1-21.2
					C549.5,29.5,548.3,35.1,548.3,50.6z"/>
				<path class="st0" d="M676.1,93.5h-27.9l-7.3-37.2h-1.1l-6.1,37.2h-28l-8.8-84h22.2l3.5,44.5h1.4l5.7-44.5h22.6l6.2,44.5h1.4
					l2.4-44.5h21.4L676.1,93.5z"/>
				<path class="st0" d="M731.4,93.5L714,54.4h-1.1v39.1h-20.6v-84h22.9l16.6,40.3h1.1V9.5h20.7v84H731.4z"/>
				<path class="st2" d="M187.8,175.4h-26.1v-66.2h25.6c13.5,0,19.9,5.3,19.9,17c0,6.8-2.6,10.8-7.4,13.9v0.6
					c5.2,2,8.4,6.6,8.4,15.7C208.2,168.1,202.6,175.4,187.8,175.4z M183.5,123.9h-3.4v13.7h3.5c3.2,0,4.4-1.7,4.4-6.7
					C188,125.7,186.8,123.9,183.5,123.9z M183.5,147.9h-3.4v15.7h3.4c4.3,0,5.4-1.4,5.4-7.4C188.9,150.2,187.8,147.9,183.5,147.9z"
					/>
				<path class="st2" d="M214.4,175.4v-66.2h36.9l-1.1,16.3h-17.6v9.9h15.3v14.1h-15.3v11h18.7l-1.1,14.9H214.4z"/>
				<path class="st2" d="M257.5,175.4v-66.2h18.2v51.4h16.5l-1.1,14.8H257.5z"/>
				<path class="st2" d="M296.1,175.4v-66.2h18.2v51.4h16.5l-1.1,14.8H296.1z"/>
				<path class="st2" d="M334.7,175.4v-66.2h36.9l-1.1,16.3H353v9.9h15.3v14.1H353v11h18.7l-1.1,14.9H334.7z"/>
				<path class="st2" d="M396.1,125.5v9.9h14.2v14.1h-14.2v25.9h-18.2v-66.2h36.9l-1.1,16.3H396.1z"/>
				<path class="st2" d="M469,141.3c0,23.9-7.5,35.2-26.3,35.2c-18.7,0-25.9-11.5-25.9-34.5c0-23.8,7.5-33.9,26.2-33.9
					C461.9,108.1,469,118.4,469,141.3z M435.3,141.6v2.6c0,13.8,1.4,16.9,8,16.9c6.2,0,7.4-3.2,7.4-15.9v-3.4
					c0-12.6-1.2-16.7-8-16.7C436.3,124.9,435.3,129.3,435.3,141.6z"/>
				<path class="st2" d="M507.1,175.4l-13.8-30.8h-0.9v30.8h-16.2v-66.2h18l13.1,31.8h0.9v-31.8h16.3v66.2H507.1z"/>
				<path class="st2" d="M560.1,125.3v50.1h-18.2v-50.1h-13.1l1.1-16.1h43.7l-1.1,16.1H560.1z"/>
				<path class="st2" d="M607.5,175.4l-2-10.5h-12.6l-2,10.5h-17l12.2-66.2h27.1l12.2,66.2H607.5z M599.7,128.8h-0.7l-3.7,23.7h8.2
					L599.7,128.8z"/>
				<path class="st2" d="M631.9,175.4v-66.2H650v66.2H631.9z"/>
				<path class="st2" d="M691.3,175.4l-13.8-30.8h-0.9v30.8h-16.2v-66.2h18l13.1,31.8h0.9v-31.8h16.3v66.2H691.3z"/>
				<path class="st2" d="M718.2,175.4v-66.2h36.9l-1.1,16.3h-17.6v9.9h15.3v14.1h-15.3v11h18.7l-1.1,14.9H718.2z"/>
			</g>
		</g>
	</g>
</g>
</svg>
