<?xml version="1.0" encoding="UTF-8"?>
<svg id="Layer_1" data-name="Layer 1" xmlns="http://www.w3.org/2000/svg" viewBox="0 0 755.21 184.78">
  <defs>
    <style>
      .cls-1 {
        fill: #fff;
      }
    </style>
  </defs>
  <g>
    <path class="cls-1" d="M130.11,38.28c-1.4-3.5-4.5-5.5-8.5-5.6-2.2,0-4.6,0-7.2.3-1.5.1-2.9.3-4.4.5.2-.3.4-.5.6-.8,1.4-1.7,2.5-3.1,3.7-4.3,4.3-4.6,3.3-8.8,2.4-11-1-2.1-3.6-5.7-9.9-5.4-5.6.3-10.8,1.3-15.7,3.2-2.5,1-4.9,2.1-7.1,3.4-.1.1-.2.1-.3.2-.7-1.7-1.5-3.4-2.4-5.1-.2-.3-.3-.6-.5-.9-.1-.1-.1-.3-.2-.4-1.6-3.2-4.2-7.3-8.5-10.2-4.2-2.9-8-2.4-10.4-1.4-3.9,1.5-7.2,4.5-9.6,8.8-.4.7-.8,1.4-1.1,2.1-.2.3-.3.7-.5,1-1.1,2-2.1,4.1-3.2,6.2-2.2-1.3-4.5-2.4-6.9-3.4-5.3-2.1-10.9-3.3-16.7-3.5-4.3-.1-7.7,1.9-9.4,5.6-.8,1.9-1.7,5.8,1.8,10.1,1.5,1.8,2.9,3.6,4.3,5.3l.1.1c.1.1.1.2.2.3-1.1-.2-2.1-.3-3.2-.4-3.1-.3-5.7-.5-8.2-.5-3.9,0-7.1,2.1-8.6,5.7-.8,1.9-.9,4-.4,6,.3,1,.7,1.9,1.3,2.7.5.7,1,1.3,1.6,1.9,1.2,1,2.6,2.3,3.9,3.5q.1.1.2.2c.7.7,1.4,1.4,2,2.1h0c.1.1.1.2.2.2h0c.7.7,1.3,1.4,2,2.1,5.2,5.8,10.8,14.6,11.6,16l.2.3c.4.7.7,1.5,1.1,2.2-8.6,7.6-13.7,17-15.2,27.8-.3,2.2-.5,4.2-.5,6.2-.1,4.9-.1,9.8-.1,14.6s0,9.3-.1,14v1c0,6.7,1.4,12.8,4.2,18.4,8.3,16.9,22.5,26.3,41.2,27.2,3.4.2,6.8.2,10.1.2,3.1,0,6.1,0,9.1-.1h2.3c7-.1,13-1.4,18.1-4.1,4.9-2.5,8.6-4.9,11.8-7.6,3.2-2.8,6.3-6.3,8.9-10.3,4.5-6.8,6.8-14,6.9-21.5v-1.8c.2-10.7.2-21.4.1-31.7,0-1.2-.1-2.5-.3-4.1-.3-2.1-.7-4.3-1.4-6.4-2.3-8-6.5-14.9-12.6-20.6l-.2-.2c-.3-.3-.6-.5-.9-.8,3-5.6,6.4-10.6,10.4-15,2.6-2.9,5.3-5.6,8.3-8.5l3.1-3.1c.3-.3.5-.5.7-.8,2.6-3,3.2-6.5,1.8-9.9ZM124.31,44.58c-.1.1-.1.2-.2.3-.3.3-.5.5-.8.8-.8.8-1.5,1.5-2.3,2.3-2.9,2.9-5.8,5.7-8.5,8.8-5,5.6-9.1,11.9-12.4,18.7-.5,1-.3,1.6.5,2.3.6.5,1.2,1,1.8,1.5.3.3.7.6,1,.9.1,0,.1.1.2.1,5.3,5,9,11,11.1,18.2.5,1.8.9,3.7,1.2,5.6.2,1.1.3,2.3.3,3.4.1,10.5.1,21-.1,31.5v1.8c-.1,6.8-2.3,13.1-6,18.6-2.2,3.4-4.9,6.6-7.9,9.2-3.2,2.7-6.9,5-10.7,6.9-4.9,2.5-10.2,3.4-15.7,3.5-7.1.1-14.1.3-21.2-.1-16.9-.8-29.1-9-36.5-24.2-2.5-5-3.6-10.4-3.6-16.1v-.9c.1-9.5,0-19,.1-28.5,0-1.9.2-3.7.5-5.5,1.4-9.7,6-17.9,13.5-24.6.3-.3.6-.6,1-.9.2-.1.3-.3.4-.4,1.3-1.1,1.6-1.9.7-3.3-.3-.5-.6-1.1-.9-1.6-.5-1-1-2-1.5-2.9,0,0-6.4-10.3-12.4-17.1-.7-.7-1.4-1.4-2.1-2.2l-.1-.1-.1-.1c-.7-.7-1.4-1.5-2.1-2.2q-.1-.1-.2-.2c-1.3-1.3-2.8-2.6-4.2-3.8-.3-.3-.5-.5-.7-.8s-.4-.7-.5-1.1c-.2-.8-.2-1.6.2-2.4.6-1.4,1.8-2.3,3.6-2.3,2.6,0,5.1.2,7.6.4,4.6.5,9.2,1.4,13.7,2.7.4.1.9.2,1.9.3-1.9-3.1-3.5-5.9-5.3-8.4-.8-1.2-1.7-2.3-2.6-3.4-1.5-1.8-2.9-3.7-4.4-5.5-1.1-1.3-1.7-2.8-1-4.4.8-1.7,2.3-2.4,4.2-2.3,5.2.2,10.2,1.2,14.8,3.1,3.7,1.5,7.2,3.4,10.5,6,.3.2.6.4.5.3,2-3.9,3.9-7.8,5.9-11.6.5-1,1-2,1.5-2.9,1.6-2.7,3.7-5.2,6.9-6.4,2-.8,3.7-.3,5.4.8,3.1,2.1,5.1,5.1,6.9,8.3.2.4.5.8.7,1.2,1.8,3.5,3.2,7.1,4.8,10.8,1.8-1.2,3.6-2.5,5.5-3.6,2-1.2,4.1-2.2,6.2-3,4.5-1.7,9.1-2.6,14-2.8,2-.1,3.8.3,4.7,2.2.9,1.9,0,3.5-1.4,5s-2.7,3.1-4,4.7c-2.8,3.6-5.3,7.4-7.5,11.4-.1.1-.1.4-.1.7,1.8-.4,3.6-.8,5.4-1.2,3.6-.9,7.2-1.5,10.8-1.8,2.2-.2,4.4-.3,6.7-.3,1.7,0,2.9.7,3.5,2.2.2,1.7,0,3.1-1.2,4.4Z"/>
    <g>
      <path class="cls-1" d="M86.21,104.08c-5.2,5.1-10.3,10.1-15.2,14.9,5.9,6,11.9,12,18,18.2.4-.3.9-.6,1.2-.9,5.4-5.4,10.9-10.8,16.2-16.2-3.2-3.4-10.8-11.6-14.9-16-1.4-1.5-2.4-2.6-2.6-2.8-.8.9-1.7,1.8-2.7,2.8ZM92.91,119.98c0,2.1-1.5,3.7-3.6,3.8-1.9.1-3.8-1.7-3.8-3.7s1.6-3.7,3.7-3.7c2.2,0,3.7,1.4,3.7,3.6Z"/>
      <path class="cls-1" d="M34.61,66.38c0,.1.1.1.1.2.3.6.6,1.1.9,1.6h0c.6,1.1,1.2,2.3,1.8,3.3.2.4,1.1.8,1.5.7,6.2-2.5,12.6-3.8,19.4-3.6-9.6-12.9-22.5-19.8-38.3-22.1.4.6.9,1.1,1.3,1.7.3.4.4.8.6,1.1h0s8.9,10.7,12.7,17.1c-.1,0,0,0,0,0Z"/>
      <path class="cls-1" d="M28.81,103.88c2.2-2.2,4.5-4.5,6.7-6.6,1.3-1.3,1.3-2-.1-3.1-1-.8-1.8-1.8-2.7-2.7-1-1-2-1.9-3.1-3-3.8,4.7-6.3,9.8-7.3,15.5-.4,2.2-.6,4.4-.6,6.7.6-.5,1-.7,1.3-1,2-2,3.9-3.9,5.8-5.8Z"/>
      <path class="cls-1" d="M34.91,141.08c-.8-.8-1.6-1.6-2.3-2.4-3.2-3.2-6.4-6.5-9.6-9.7-.3-.3-.6-.4-1.1-.7,0,3.5-.2,7,0,10.4.2,4.9,1.1,9.7,3.7,14.3,3.4-3.3,6.7-6.5,9.9-9.7,1-1,0-1.6-.6-2.2Z"/>
      <path class="cls-1" d="M47.61,153.98c-2-2-3.9-4-5.8-6.1-4.1,4.1-7.9,7.9-11.9,11.9,5.4,6,12.1,9.7,20.1,11.2,3.2.6,5.7.3,7.6-2.6.3-.4.6-.8,1-1,1.1-.8.9-1.5.1-2.3-3.7-3.6-7.4-7.4-11.1-11.1ZM41.41,163.98c-2,0-3.8-1.8-3.8-3.7s1.9-3.7,3.8-3.7c2,0,3.7,1.7,3.7,3.8s-1.6,3.7-3.7,3.6Z"/>
      <path class="cls-1" d="M41.91,43.38c.7,1.3,1.2,2.6,2.7,3.3.5.2.9.5,1.4.7.6.3,1.3.7,1.9,1.1.6.4,1.2.8,1.8,1.2,3.6,2.8,7.2,5.8,10.6,8.6,0-2.8-1-6-2.6-9.3-.2-.3-.3-.7-.5-1-5.4-10.3-16.7-21.1-24.7-21.5.2.4.4.7.5,1,2.9,5.3,6,10.6,8.9,15.9Z"/>
      <path class="cls-1" d="M43.41,89.28c2.8-2.7,5.6-5.5,8.4-8.3.2-.2.4-.4.6-.6.1-.1.2-.2.4-.4.9-.9,1.8-1.8,2.9-2.9.3-.3.6-.6.9-.9-1.8,0-3.5.1-5.1.3-3.4.4-6.7,1.3-9.7,2.8-.6.3-1.2.5-1.8.9-1.6.9-3.2,1.9-4.8,3.1,2.4,2.3,4.4,4.3,6.6,6.3.1.3,1.2.1,1.6-.3Z"/>
      <path class="cls-1" d="M42.01,136.88c5.7-5.7,11.4-11.4,17.2-17.1.8-.8.5-1.3-.1-2-1.7-1.7-3.5-3.4-5.2-5.2-2.8-2.9-5.7-5.8-8.4-8.7-.9-1-1.9-1.9-2.8-2.9-1,1-1.9,1.9-2.9,2.8-5.3,5.3-10.5,10.4-15.3,15.2,5.8,6,11.6,11.9,17.5,17.9ZM41.61,116.28c2.2,0,3.7,1.6,3.7,3.7s-1.8,3.7-3.8,3.7-3.8-1.9-3.8-3.8c0-1.9,1.8-3.6,3.9-3.6Z"/>
      <path class="cls-1" d="M68.11,80.48c0-.1-.1-.1-.1-.2-.5-.6-1-1.2-1.4-1.9-.2-.3-.3-.5-.5-.8-.2.2-.4.4-.7.6l-2.1,2.1c-.3.3-.6.6-1,1-5,4.9-9.7,9.7-14.6,14.5,2.7,2.7,5.4,5.4,8.1,8.1,2.9,2.9,5.9,5.8,8.8,8.8.8.8,1.2.6,2-.2,2.9-2.9,5.8-5.7,8.6-8.5,2.2-2.2,4.4-4.4,6.7-6.6,1.2-1.2,1.3-1.9,0-3.2-4.3-4.2-8.5-8.5-12.7-12.8-.5-.2-.8-.6-1.1-.9ZM65.21,100.28c-2,0-3.7-1.9-3.6-3.9.1-2,1.9-3.9,3.7-3.8,1.8.1,3.9,2.2,3.9,4,0,2-1.9,3.8-4,3.7Z"/>
      <path class="cls-1" d="M62.41,42.48c1.1,1.8,1.9,3.7,3,5.8,0,.1.1.1.1.2,0-.1.1-.1.1-.2.3-.4.5-.6.6-.9,2.1-4.7,4.6-9.1,7.9-13.1.3-.4.5-1.2.4-1.7-1.3-6.6-3.9-12.7-8-18.1-.1-.1-.2-.2-.3-.3-.6-.6-1.1-.7-1.8.1q-.1.1-.2.2c-3.9,4.8-6,10.5-7.6,16.3-.5,1.7-.1,3,1,4.5,1.9,2.2,3.4,4.7,4.8,7.2Z"/>
      <path class="cls-1" d="M73.51,49.28c-1.4,3.2-2.4,6.4-2.8,9.4.2-.1.3-.2.5-.3,3.4-3.5,7.2-6.5,11.2-9.2.6-.4,1.1-.7,1.7-1,1-.6,1.9-1.2,2.9-1.7.6-.3,1.2-1.1,1.5-1.7,1.8-3.3,3.4-6.8,5.2-10.1,1.5-2.6,3.2-5.1,5-8-10.8,2.5-20.1,11.9-24.8,21.7-.1.3-.2.6-.4.9Z"/>
      <path class="cls-1" d="M103.51,47.88c-12.4,3.5-29.3,14.4-30.8,21,.2,0,.5.1.7.1,6.2-.2,12.2.8,17.9,3.4,1.6.7,2.1-.3,2.6-1.3,3.6-7.6,8.5-14.4,14-20.7.9-1,1.7-2,2.7-3.1.1-.1.2-.3.4-.4-2.1-.2-4.7.2-7.5,1Z"/>
      <path class="cls-1" d="M95.71,97.68l1.8,1.8c.5.5,2,2.3,3.9,4.6,2.2,2.7,5,6.2,7.4,9.4.1-3.2,0-6.3-.5-9.4-.2-1.4-.6-2.8-1.1-4.2-1.4-4-3.2-7.7-6.1-11l-7.1,7.1c.6.6,1.1,1.1,1.7,1.7Z"/>
      <path class="cls-1" d="M98.71,138.98c-1.3,1.2-2.6,2.5-3.8,3.7,3.3,3.4,6.7,6.8,10.1,10.3,2.6-4.5,3.4-9.2,3.6-14,.2-3.2,0-6.5,0-9.8-3.3,3.4-6.6,6.6-9.9,9.8Z"/>
      <path class="cls-1" d="M94.51,82.58c-.9-.5-1.8-1.1-2.7-1.6-.5-.3-1.1-.6-1.6-.9h-.1c-.4-.2-.7-.4-1.1-.6-4.3-2-8.9-3-13.8-3,.2.5.2.7.3.8l2.1,2.1,1.1,1.1,1,1c2.7,2.8,5.4,5.5,8.2,8.3.3.3,1.4.2,1.8-.1,1.8-1.6,3.4-3.3,5.1-5,.8-1,.6-1.6-.3-2.1Z"/>
      <path class="cls-1" d="M77.31,148.98c2.1-2.1,4.2-4.2,6.3-6.2-1.3-1.3-2.6-2.6-3.9-3.9-4.9-4.8-9.7-9.6-14.7-14.6-4.7,4.8-9.6,9.6-14.4,14.5-1,1-1.9,1.9-2.9,2.9-.9.9-.2,1.4.3,2,5.4,5.4,10.8,10.8,16.1,16.3.8.8,1.3,1,2.2,0,3.6-3.7,7.4-7.3,11-11ZM65.11,146.88c-2,0-3.7-1.8-3.7-3.8,0-2.1,1.6-3.6,3.8-3.6s3.7,1.6,3.7,3.7c0,2.1-1.7,3.7-3.8,3.7Z"/>
      <path class="cls-1" d="M90.51,149.48c-1.1-1.1-1.7-1.3-2.9-.1-6.1,6.2-12.3,12.3-18.5,18.4-1.1,1.1-2.2,2.2-3.3,3.3.1.2.2.3.3.5,3.3,0,6.6.2,9.9,0,9.2-.6,17.2-3.9,23.6-10.7.9-.9,1-1.4,0-2.3-3.1-3-6.2-6-9.1-9.1ZM89.01,164.18c-2,0-3.7-1.7-3.7-3.6,0-2,1.7-3.8,3.7-3.8,2.1,0,3.7,1.7,3.7,3.8s-1.5,3.6-3.7,3.6Z"/>
    </g>
  </g>
  <g>
    <path class="cls-1" d="M190.81,93.48h-27.9V9.48h28.4c26.1,0,34.1,16,34.1,40.2.1,24.6-7.8,43.8-34.6,43.8ZM190.01,29.88h-4.1v44.1h4.5c10.3,0,11.4-8,11.4-22,0-14.6-1.5-22.1-11.8-22.1Z"/>
    <path class="cls-1" d="M297.71,50.18c0,30.3-9.5,44.6-33.4,44.6s-32.9-14.6-32.9-43.7,9.5-43,33.3-43c23.9.1,33,13.2,33,42.1ZM254.91,50.58v3.2c0,17.4,1.8,21.4,10.1,21.4,7.8,0,9.3-4.1,9.3-20.2v-4.3c0-16-1.5-21.2-10.1-21.2-8,0-9.3,5.6-9.3,21.1Z"/>
    <path class="cls-1" d="M382.71,93.48h-27.9l-7.3-37.2h-1.1l-6.1,37.2h-28l-8.8-84h22.2l3.5,44.5h1.4l5.7-44.5h22.6l6.2,44.5h1.4l2.4-44.5h21.4l-7.6,84Z"/>
    <path class="cls-1" d="M438.01,93.48l-17.4-39.1h-1.1v39.1h-20.6V9.48h22.9l16.6,40.3h1.1V9.48h20.7v84h-22.2Z"/>
    <path class="cls-1" d="M505.31,29.88v63.6h-23.2V29.88h-16.6l1.4-20.4h55.4l-1.4,20.4h-15.6Z"/>
    <path class="cls-1" d="M591.11,50.18c0,30.3-9.5,44.6-33.4,44.6s-32.9-14.6-32.9-43.7,9.5-43,33.3-43c24,.1,33,13.2,33,42.1ZM548.41,50.58v3.2c0,17.4,1.8,21.4,10.1,21.4,7.8,0,9.3-4.1,9.3-20.2v-4.3c0-16-1.5-21.2-10.1-21.2-8.1,0-9.3,5.6-9.3,21.1Z"/>
    <path class="cls-1" d="M676.21,93.48h-27.9l-7.3-37.2h-1.1l-6.1,37.2h-28l-8.8-84h22.2l3.5,44.5h1.4l5.7-44.5h22.6l6.2,44.5h1.4l2.4-44.5h21.4l-7.6,84Z"/>
    <path class="cls-1" d="M731.51,93.48l-17.4-39.1h-1.1v39.1h-20.6V9.48h22.9l16.6,40.3h1.1V9.48h20.7v84h-22.2Z"/>
    <path class="cls-1" d="M187.91,175.38h-26.1v-66.2h25.6c13.5,0,19.9,5.3,19.9,17,0,6.8-2.6,10.8-7.4,13.9v.6c5.2,2,8.4,6.6,8.4,15.7,0,11.7-5.6,19-20.4,19ZM183.61,123.88h-3.4v13.7h3.5c3.2,0,4.4-1.7,4.4-6.7s-1.2-7-4.5-7ZM183.61,147.88h-3.4v15.7h3.4c4.3,0,5.4-1.4,5.4-7.4s-1.1-8.3-5.4-8.3Z"/>
    <path class="cls-1" d="M214.51,175.38v-66.2h36.9l-1.1,16.3h-17.6v9.9h15.3v14.1h-15.3v11h18.7l-1.1,14.9h-35.8Z"/>
    <path class="cls-1" d="M257.61,175.38v-66.2h18.2v51.4h16.5l-1.1,14.8h-33.6Z"/>
    <path class="cls-1" d="M296.21,175.38v-66.2h18.2v51.4h16.5l-1.1,14.8h-33.6Z"/>
    <path class="cls-1" d="M334.81,175.38v-66.2h36.9l-1.1,16.3h-17.5v9.9h15.3v14.1h-15.3v11h18.7l-1.1,14.9h-35.9Z"/>
    <path class="cls-1" d="M396.21,125.48v9.9h14.2v14.1h-14.2v25.9h-18.2v-66.2h36.9l-1.1,16.3h-17.6Z"/>
    <path class="cls-1" d="M469.11,141.28c0,23.9-7.5,35.2-26.3,35.2s-25.9-11.5-25.9-34.5,7.5-33.9,26.2-33.9,26,10.3,26,33.2ZM435.41,141.58v2.6c0,13.8,1.4,16.9,8,16.9,6.2,0,7.4-3.2,7.4-15.9v-3.4c0-12.6-1.2-16.7-8-16.7-6.4-.2-7.4,4.2-7.4,16.5Z"/>
    <path class="cls-1" d="M507.21,175.38l-13.8-30.8h-.9v30.8h-16.2v-66.2h18l13.1,31.8h.9v-31.8h16.3v66.2h-17.4Z"/>
    <path class="cls-1" d="M560.21,125.28v50.1h-18.2v-50.1h-13.1l1.1-16.1h43.7l-1.1,16.1s-12.4,0-12.4,0Z"/>
    <path class="cls-1" d="M607.61,175.38l-2-10.5h-12.6l-2,10.5h-17l12.2-66.2h27.1l12.2,66.2h-17.9ZM599.81,128.78h-.7l-3.7,23.7h8.2l-3.8-23.7Z"/>
    <path class="cls-1" d="M632.01,175.38v-66.2h18.1v66.2h-18.1Z"/>
    <path class="cls-1" d="M691.41,175.38l-13.8-30.8h-.9v30.8h-16.2v-66.2h18l13.1,31.8h.9v-31.8h16.3v66.2h-17.4Z"/>
    <path class="cls-1" d="M718.31,175.38v-66.2h36.9l-1.1,16.3h-17.6v9.9h15.3v14.1h-15.3v11h18.7l-1.1,14.9h-35.8Z"/>
  </g>
</svg>